<?xml version="1.0" standalone="no"?>
<!DOCTYPE svg PUBLIC "-//W3C//DTD SVG 20010904//EN"
 "http://www.w3.org/TR/2001/REC-SVG-20010904/DTD/svg10.dtd">
<svg version="1.0" xmlns="http://www.w3.org/2000/svg"
 width="239.000000pt" height="239.000000pt" viewBox="0 0 239.000000 239.000000"
 preserveAspectRatio="xMidYMid meet">
<metadata>
Created by potrace 1.11, written by Peter Selinger 2001-2013
</metadata>
<g transform="translate(0.000000,239.000000) scale(0.100000,-0.100000)"
fill="#000000" stroke="none">
<path d="M1577 1483 l-87 -88 -528 0 -529 -1 -78 -64 c-44 -36 -86 -72 -95
-81 -9 -8 -27 -23 -41 -32 l-24 -17 35 -31 c19 -16 71 -61 115 -98 l80 -68
515 -1 c283 0 522 -1 531 -1 9 -1 57 -41 106 -91 l90 -90 153 0 152 0 109 110
109 111 0 155 0 156 -107 109 -107 109 -156 0 -155 0 -88 -87z"/>
<path d="M207 724 c-4 -4 -7 -26 -7 -48 0 -37 3 -42 26 -44 24 -2 25 0 22 45
-2 34 -8 49 -18 51 -9 1 -19 0 -23 -4z m33 -18 c0 -3 -4 -8 -10 -11 -5 -3 -10
-1 -10 4 0 6 5 11 10 11 6 0 10 -2 10 -4z m-5 -47 c-10 -15 -25 -10 -19 6 4 8
10 12 15 9 5 -3 7 -10 4 -15z"/>
<path d="M266 693 c1 -21 2 -44 3 -50 1 -15 41 -18 41 -3 0 6 -7 10 -15 10
-20 0 -19 19 0 26 14 6 13 8 -2 20 -17 13 -17 13 0 14 26 0 20 20 -6 20 -21 0
-23 -4 -21 -37z"/>
<path d="M324 680 c-1 -27 3 -47 7 -44 10 6 9 94 -1 94 -3 0 -6 -22 -6 -50z"/>
<path d="M350 678 c0 -32 4 -48 9 -42 17 17 18 94 1 94 -5 0 -10 -23 -10 -52z"/>
<path d="M387 694 c-7 -39 0 -67 14 -58 12 7 12 94 0 94 -4 0 -11 -16 -14 -36z"/>
<path d="M432 721 c-9 -5 -12 -22 -10 -47 3 -30 9 -40 25 -42 27 -4 39 27 17
47 -15 15 -16 14 -9 -6 4 -14 2 -23 -4 -23 -6 0 -12 5 -12 10 -5 39 -2 45 18
43 16 -2 21 2 17 12 -7 17 -22 19 -42 6z"/>
<path d="M521 684 c-13 -49 -6 -71 11 -41 9 18 10 18 24 0 13 -17 13 -17 14 1
0 25 -22 86 -31 86 -4 0 -12 -21 -18 -46z"/>
<path d="M608 698 c-4 -42 1 -68 14 -68 5 0 8 7 4 15 -3 8 -1 15 4 15 6 0 10
-8 10 -17 0 -15 2 -16 10 -3 9 13 11 13 20 0 7 -11 10 0 10 38 0 58 -15 69
-29 20 -5 -18 -10 -27 -11 -20 -2 6 -4 17 -5 22 -1 6 -3 15 -4 20 -3 23 -19 7
-23 -22z"/>
<path d="M694 680 c-1 -27 3 -50 7 -50 5 0 9 23 9 50 0 28 -4 50 -8 50 -4 0
-8 -22 -8 -50z"/>
<path d="M725 680 c0 -27 3 -50 6 -50 9 0 21 79 14 91 -13 21 -21 6 -20 -41z"/>
<path d="M765 713 c1 -10 -1 -23 -6 -28 -11 -14 -5 -48 9 -53 8 -2 12 13 12
47 0 28 -4 51 -9 51 -5 0 -8 -8 -6 -17z"/>
<path d="M800 730 c-7 -13 -5 -92 2 -96 4 -3 8 6 8 20 0 14 4 26 9 26 6 0 8
-9 6 -20 -5 -24 8 -33 34 -25 14 4 18 13 15 38 -1 18 -3 38 -3 45 -1 6 -10 12
-21 12 -18 0 -25 -10 -21 -32 3 -20 -18 -5 -22 15 -2 12 -5 20 -7 17z m60 -30
c0 -5 -4 -10 -10 -10 -5 0 -10 5 -10 10 0 6 5 10 10 10 6 0 10 -4 10 -10z m0
-40 c0 -5 -4 -10 -10 -10 -5 0 -10 5 -10 10 0 6 5 10 10 10 6 0 10 -4 10 -10z"/>
<path d="M888 694 c-5 -41 12 -70 36 -61 11 5 16 19 16 52 0 25 -4 45 -8 45
-4 0 -7 -16 -7 -37 0 -20 -5 -38 -11 -40 -7 -2 -10 11 -9 37 2 50 -11 53 -17
4z"/>
<path d="M954 708 c-4 -12 -3 -24 2 -25 23 -8 38 -23 30 -30 -5 -4 -11 -2 -13
5 -3 6 -9 9 -14 6 -12 -7 8 -34 26 -34 22 0 25 40 4 53 -10 6 -19 18 -19 26 0
11 3 11 15 1 12 -10 15 -10 15 4 0 24 -37 20 -46 -6z"/>
<path d="M1034 718 c-4 -7 -3 -8 4 -4 13 8 15 -2 12 -46 -1 -14 3 -29 9 -33 7
-4 11 8 11 34 0 23 5 41 10 41 6 0 10 5 10 10 0 14 -47 13 -56 -2z"/>
<path d="M1101 686 c-14 -58 -14 -61 4 -46 12 10 18 10 32 -1 15 -13 16 -11 9
16 -3 17 -8 37 -10 45 -3 8 -5 18 -5 23 -1 4 -5 7 -10 7 -5 0 -14 -20 -20 -44z"/>
<path d="M1160 718 c0 -9 5 -20 10 -23 6 -4 8 -11 5 -16 -11 -17 -14 -49 -4
-49 5 0 9 8 9 17 0 15 2 14 16 -3 15 -18 15 -18 9 9 -6 30 1 67 14 67 4 0 7
-20 6 -45 -1 -27 3 -44 9 -42 6 2 10 13 9 25 0 12 -1 33 -2 47 -1 18 -7 25
-21 25 -11 0 -23 -7 -26 -15 -6 -14 -8 -13 -20 2 -12 16 -13 17 -14 1z"/>
<path d="M1287 723 c-2 -4 -4 -27 -4 -50 0 -35 4 -43 18 -43 25 0 40 31 30 66
-7 28 -34 44 -44 27z m33 -41 c0 -9 -5 -24 -10 -32 -7 -11 -10 -5 -10 23 0 23
4 36 10 32 6 -3 10 -14 10 -23z"/>
<path d="M1347 723 c-6 -12 -1 -82 6 -90 4 -3 7 2 7 13 1 18 1 18 14 2 19 -26
21 -23 21 30 0 41 -3 47 -22 50 -11 2 -23 0 -26 -5z m25 -35 c-9 -9 -12 -7
-12 12 0 19 3 21 12 12 9 -9 9 -15 0 -24z"/>
<path d="M1410 679 c0 -27 4 -48 9 -45 5 3 7 24 6 47 -2 30 0 38 8 30 6 -6 12
-21 14 -33 5 -36 11 -48 24 -48 7 0 10 3 6 6 -3 3 1 23 8 45 8 21 10 41 6 43
-13 8 -21 -5 -22 -33 -1 -25 -2 -25 -8 3 -4 20 -13 30 -28 32 -21 4 -23 0 -23
-47z"/>
<path d="M1509 715 c-6 -68 -4 -80 19 -83 12 -2 22 2 22 8 0 6 -4 9 -9 5 -5
-3 -13 0 -17 6 -9 16 17 30 33 18 6 -6 9 -18 7 -27 -5 -16 -5 -16 8 0 13 15
15 15 25 0 9 -13 11 -6 10 33 -2 44 -5 50 -24 53 -19 3 -23 -1 -23 -21 0 -20
-4 -24 -20 -20 -23 6 -27 23 -5 23 8 0 15 5 15 10 0 16 -40 11 -41 -5z m85
-27 c-10 -16 -22 -7 -17 13 4 15 8 17 14 8 4 -7 5 -17 3 -21z"/>
<path d="M1650 679 c0 -29 4 -48 10 -44 12 7 11 95 -1 95 -5 0 -9 -23 -9 -51z"/>
<path d="M1680 679 c0 -29 4 -48 9 -44 6 3 8 15 6 28 -4 21 -4 21 10 3 8 -11
15 -24 15 -29 0 -4 4 -5 10 -2 11 7 9 95 -2 95 -5 0 -8 -12 -9 -27 l-1 -28
-10 28 c-15 42 -28 32 -28 -24z"/>
<path d="M1776 693 c3 -62 3 -63 24 -63 14 0 21 9 26 35 7 39 -7 65 -35 65
-13 0 -16 -8 -15 -37z m34 -13 c0 -16 -5 -30 -10 -30 -6 0 -9 14 -8 30 1 17 6
30 10 30 4 0 8 -13 8 -30z"/>
<path d="M1840 686 c0 -45 22 -68 43 -47 13 13 18 79 6 87 -9 5 -13 -14 -9
-53 1 -13 -3 -23 -9 -23 -12 0 -14 9 -13 53 0 15 -4 27 -9 27 -5 0 -9 -20 -9
-44z"/>
<path d="M1906 685 c1 -47 13 -76 15 -34 1 15 3 18 6 7 2 -9 10 -18 17 -21 8
-3 12 9 11 42 0 41 -2 46 -25 49 -24 3 -25 0 -24 -43z m26 3 c-9 -9 -12 -7
-12 12 0 19 3 21 12 12 9 -9 9 -15 0 -24z"/>
<path d="M1970 680 c0 -48 2 -51 23 -48 19 3 22 9 22 48 0 39 -3 45 -22 48
-21 3 -23 0 -23 -48z m30 20 c0 -5 -5 -10 -11 -10 -5 0 -7 5 -4 10 3 6 8 10
11 10 2 0 4 -4 4 -10z m4 -45 c-4 -8 -10 -12 -15 -9 -11 6 -2 24 11 24 5 0 7
-7 4 -15z"/>
<path d="M2041 684 c-13 -49 -6 -71 11 -41 9 18 10 18 24 0 9 -13 13 -14 14
-4 0 22 -23 91 -30 91 -4 0 -13 -21 -19 -46z"/>
<path d="M2100 679 c0 -32 4 -48 10 -44 6 4 8 15 5 26 -4 10 -2 19 4 19 5 0
11 -9 13 -20 6 -40 23 -24 24 23 1 48 -11 64 -19 25 l-4 -23 -8 23 c-13 38
-25 24 -25 -29z"/>
<path d="M2170 639 c0 -5 5 -7 10 -4 6 3 10 8 10 11 0 2 -4 4 -10 4 -5 0 -10
-5 -10 -11z"/>
</g>
</svg>
